<svg width="64" height="64" viewBox="0 0 64 64" fill="none" xmlns="http://www.w3.org/2000/svg">
  <!-- Shield outline -->
  <path d="M32 4L52 10V26C52 40 42 50 32 58C22 50 12 40 12 26V10L32 4Z" fill="#22c55e" stroke="#1f2937" stroke-width="2"/>
  
  <!-- Inner shield -->
  <path d="M32 8L48 12V24C48 36 40 44 32 52C24 44 16 36 16 24V12L32 8Z" fill="white"/>
  
  <!-- LE Letters -->
  <g fill="#1f2937">
    <!-- L -->
    <path d="M20 18V38H32V34H26V18H20Z"/>
    <!-- E -->
    <path d="M36 18V38H48V34H42V29H46V25H42V22H48V18H36Z"/>
  </g>
  
  <!-- Keyhole -->
  <circle cx="32" cy="44" r="2" fill="#1f2937"/>
  <rect x="31" y="45" width="2" height="4" rx="1" fill="#1f2937"/>
</svg>