<svg width="512" height="512" viewBox="0 0 512 512" fill="none" xmlns="http://www.w3.org/2000/svg">
  <!-- Shield background -->
  <path d="M256 32L96 96V256C96 352 176 432 256 480C336 432 416 352 416 256V96L256 32Z" fill="white" stroke="black" stroke-width="8"/>
  
  <!-- LE letters -->
  <g transform="translate(128, 120)">
    <!-- L -->
    <path d="M0 0V120H60V80H40V0H0Z" fill="black"/>
    <!-- E -->
    <path d="M80 0V120H140V100H100V70H130V50H100V20H140V0H80Z" fill="black"/>
  </g>
  
  <!-- Keyhole -->
  <circle cx="256" cy="360" r="12" fill="black"/>
  <rect x="252" y="360" width="8" height="20" fill="black"/>
  
  <!-- Text below shield -->
  <g transform="translate(80, 420)" font-family="serif" font-size="32" font-weight="bold" fill="black">
    <text x="0" y="0">LOKEY</text>
    <text x="0" y="40">&amp;CO</text>
    <text x="0" y="70" font-size="16" font-weight="normal">HOMESTEAD</text>
  </g>
</svg>